<svg width="78" height="37" viewBox="0 0 78 37" fill="none" xmlns="http://www.w3.org/2000/svg">
<path opacity="0.3" fill-rule="evenodd" clip-rule="evenodd" d="M11.8571 1C17.1306 1 17.1306 25.1695 22.7143 25.1695C27.9878 25.1695 27.9878 16.2373 33.5714 16.2373C38.8449 16.2373 38.8449 13.0847 44.4286 13.0847C49.702 13.0847 49.702 13.6102 55.2857 13.6102C60.5592 13.6102 60.5592 18.339 66.1429 18.339C71.4163 18.339 77 32 77 32V37H1V12.0339C1 12.0339 6.27347 1 11.8571 1Z" fill="url(#paint0_linear_102_2098)"/>
<path fill-rule="evenodd" clip-rule="evenodd" d="M11.8571 0.5C14.2828 0.5 15.4056 3.16578 17.2532 11.1912L17.8498 13.8249C19.6576 21.7232 20.8489 24.6695 22.7142 24.6695C24.5558 24.6695 25.5734 23.7306 27.3071 20.9222L27.5992 20.4437C29.6308 17.1009 30.9191 15.8156 33.341 15.7408L33.5714 15.7373C35.4999 15.7373 36.5362 15.416 38.2133 14.4697L38.6325 14.2286C40.7104 13.022 41.9939 12.5847 44.4285 12.5847L45.2979 12.5889C46.5236 12.6017 47.4336 12.6449 48.5154 12.7338L50.5479 12.9204C51.8774 13.0381 52.9124 13.0925 54.4151 13.1064L55.2857 13.1102C57.4823 13.1102 58.6934 13.6909 60.5624 15.2828L60.9263 15.5976C62.8521 17.2751 63.9557 17.839 66.1428 17.839C66.4598 17.839 66.7797 17.8814 67.1019 17.9643C69.3599 18.5458 71.6619 21.0638 73.9773 24.9117C74.8859 26.4216 75.7331 28.0367 76.4971 29.6517L76.8036 30.3096C76.9009 30.5219 76.9934 30.727 77.0807 30.9239L77.3191 31.4697L77.4628 31.8108L76.5371 32.1892L76.2915 31.613L76.0342 31.0333C75.898 30.7316 75.7508 30.4126 75.5931 30.0793C74.8424 28.4924 74.0102 26.9058 73.1205 25.4273C70.9358 21.7966 68.7687 19.4262 66.8525 18.9327C66.6101 18.8703 66.3736 18.839 66.1428 18.839C63.7673 18.839 62.4708 18.2271 60.5269 16.5733L60.1532 16.2503C58.3891 14.7135 57.3776 14.1606 55.5522 14.1135L54.4011 14.1063C52.8733 14.0921 51.8152 14.0364 50.4636 13.9168L48.743 13.7567C47.2962 13.6304 46.2282 13.5847 44.4285 13.5847C42.3146 13.5847 41.1947 13.9284 39.4343 14.9218L39.0185 15.1609C37.1235 16.2614 35.9473 16.6916 33.9178 16.7338L33.5714 16.7373C31.6088 16.7373 30.5168 17.6728 28.8049 20.3946L28.3375 21.1544C26.3187 24.4761 25.1008 25.6695 22.7142 25.6695C20.0659 25.6695 18.858 22.7344 16.8787 14.0656L16.2857 11.4488C14.6097 4.19598 13.5075 1.5 11.8571 1.5C9.62498 1.5 7.17118 3.48366 4.73831 6.81201C3.86896 8.00133 3.06497 9.27803 2.34701 10.5549C2.15853 10.8901 1.98628 11.2072 1.83131 11.5017L1.56282 12.0229L1.45108 12.2495L0.548828 11.8183L0.792772 11.3312L1.11119 10.7264C1.22505 10.5149 1.34653 10.2939 1.47535 10.0648C2.21147 8.75561 3.03605 7.44623 3.93099 6.22189C6.53892 2.65405 9.2035 0.5 11.8571 0.5Z" fill="#EC6666"/>
<defs>
<linearGradient id="paint0_linear_102_2098" x1="1" y1="1" x2="1" y2="37" gradientUnits="userSpaceOnUse">
<stop stop-color="#EC6666"/>
<stop offset="1" stop-color="#EC6666" stop-opacity="0.103475"/>
</linearGradient>
</defs>
</svg>
