<svg width="77" height="38" viewBox="0 0 77 38" fill="none" xmlns="http://www.w3.org/2000/svg">
<path opacity="0.3" fill-rule="evenodd" clip-rule="evenodd" d="M0.460205 1.63555C0.460205 1.63555 5.73367 14.1266 11.3173 14.1266C16.5908 14.1266 16.5908 8.82737 22.1745 8.82737C27.448 8.82737 27.448 17.5332 33.0316 17.5332C38.3051 17.5332 38.3051 0.5 43.8888 0.5C49.1622 0.5 49.1622 26.6176 54.7459 26.6176C60.0194 26.6176 60.0194 16.0192 65.6031 16.0192C70.8765 16.0192 76.4602 25.1036 76.4602 25.1036V37.5H0.460205V1.63555Z" fill="url(#paint0_linear_102_3455)"/>
<path fill-rule="evenodd" clip-rule="evenodd" d="M43.8889 0C46.4086 0 47.5146 3.04368 49.4815 12.3977L49.8769 14.2823C51.6879 22.7983 52.8884 26 54.746 26C56.5656 26 57.5931 24.8727 59.3369 21.5318L59.6137 20.9959C61.7083 16.9249 63.0026 15.4493 65.6032 15.4493C65.9058 15.4493 66.212 15.4761 66.5216 15.5289C68.7466 15.9082 71.0604 17.5836 73.3793 20.1347C74.2927 21.1396 75.1443 22.2143 75.9123 23.289C76.1139 23.5712 76.299 23.8384 76.4663 24.0869L76.8858 24.7301L76.0349 25.2554L75.7926 24.8793C75.5922 24.5753 75.3599 24.236 75.0987 23.8704C74.352 22.8255 73.5241 21.7807 72.6393 20.8073C70.458 18.4076 68.3027 16.847 66.3535 16.5147C66.0985 16.4712 65.8484 16.4493 65.6032 16.4493C63.6558 16.4493 62.555 17.5774 60.8247 20.837L60.0573 22.3101C58.2301 25.7537 57.0266 27 54.746 27C52.0429 27 50.8484 23.7609 48.808 14.0616L48.3251 11.7675C46.644 3.93525 45.5327 1 43.8889 1C41.9451 1 40.7901 3.04218 38.9393 8.76069L38.4701 10.2174C36.5907 15.9703 35.4289 17.9565 33.0317 17.9565C30.6198 17.9565 29.3212 16.8773 27.4358 13.9736L26.5888 12.6406C24.9641 10.136 23.9553 9.28986 22.1746 9.28986C20.0921 9.28986 18.9953 9.86559 17.2145 11.5589L16.8619 11.8991C14.8464 13.8577 13.6238 14.5652 11.3175 14.5652C8.64467 14.5652 5.98348 12.1408 3.37552 8.11991C2.48217 6.74258 1.65899 5.26946 0.924136 3.79659L0.629764 3.19645C0.583095 3.09961 0.537636 3.00443 0.493405 2.911L0.0932002 2.03968L0 1.82565L0.920632 1.43522L1.15272 1.95723L1.39747 2.4836C1.52721 2.75764 1.66788 3.04736 1.81895 3.35015C2.53817 4.79168 3.34356 6.23296 4.2145 7.57574C6.64736 11.3266 9.10453 13.5652 11.3175 13.5652C13.2179 13.5652 14.2325 13.0239 15.9384 11.4L16.2812 11.069C18.374 9.03528 19.6817 8.28986 22.1746 8.28986C24.4817 8.28986 25.6982 9.3778 27.6073 12.376L27.9106 12.8578C29.8318 15.925 30.9333 16.9565 33.0317 16.9565C34.7499 16.9565 35.817 15.1076 37.5205 9.90302L38.1059 8.08945C40.061 2.1089 41.3111 0 43.8889 0Z" fill="#19AC3E"/>
<defs>
<linearGradient id="paint0_linear_102_3455" x1="1.21944" y1="0.558594" x2="1.21944" y2="36.8193" gradientUnits="userSpaceOnUse">
<stop stop-color="#14D699"/>
<stop offset="1" stop-color="#14D645" stop-opacity="0.0976289"/>
</linearGradient>
</defs>
</svg>
